<svg width="18" height="18" viewBox="0 0 18 18" fill="none" xmlns="http://www.w3.org/2000/svg">
<path d="M17.0302 2.03033C17.3231 1.73744 17.3231 1.26256 17.0302 0.96967C16.7373 0.676777 16.2624 0.676777 15.9695 0.96967L8.99983 7.93934L2.03018 0.969689C1.73729 0.676796 1.26241 0.676796 0.969519 0.969689C0.676625 1.26258 0.676626 1.73746 0.969518 2.03035L7.93917 9L0.969517 15.9696C0.676624 16.2625 0.676624 16.7374 0.969517 17.0303C1.26241 17.3232 1.73728 17.3232 2.03018 17.0303L8.99983 10.0607L15.9695 17.0303C16.2624 17.3232 16.7373 17.3232 17.0302 17.0303C17.3231 16.7374 17.3231 16.2626 17.0302 15.9697L10.0605 9L17.0302 2.03033Z" fill="#F7F8F8"/>
</svg>
