<svg width="18" height="12" viewBox="0 0 18 12" fill="none" xmlns="http://www.w3.org/2000/svg">
<path d="M0.75 1.5C0.75 1.08579 1.08579 0.75 1.5 0.75H16.5C16.9142 0.75 17.25 1.08579 17.25 1.5C17.25 1.91421 16.9142 2.25 16.5 2.25H1.5C1.08579 2.25 0.75 1.91421 0.75 1.5Z" fill="#F7F8F8"/>
<path d="M0.75 10.5C0.75 10.0858 1.08579 9.75 1.5 9.75H16.5C16.9142 9.75 17.25 10.0858 17.25 10.5C17.25 10.9142 16.9142 11.25 16.5 11.25H1.5C1.08579 11.25 0.75 10.9142 0.75 10.5Z" fill="#F7F8F8"/>
<path d="M1.5 5.25C1.08579 5.25 0.75 5.58579 0.75 6C0.75 6.41421 1.08579 6.75 1.5 6.75H16.5C16.9142 6.75 17.25 6.41421 17.25 6C17.25 5.58579 16.9142 5.25 16.5 5.25H1.5Z" fill="#F7F8F8"/>
</svg>
